<svg data-v-423bf9ae="" xmlns="http://www.w3.org/2000/svg" viewBox="0 0 167.4390278414745 60"
     class="font"><!----><!---->
    <defs data-v-423bf9ae="">
        <linearGradient data-v-423bf9ae="" gradientTransform="rotate(25)" id="98404ce5-4260-445b-926b-64e9b30c1873"
                        x1="0%" y1="0%" x2="100%" y2="0%">
            <stop data-v-423bf9ae="" offset="0%" style="stop-color: rgb(81, 6, 255); stop-opacity: 1;"></stop>
            <stop data-v-423bf9ae="" offset="100%" style="stop-color: rgb(97, 203, 242); stop-opacity: 1;"></stop>
        </linearGradient>
    </defs>
    <g data-v-423bf9ae="" id="d03bf657-9334-44e3-8e81-25f2fde1faed" fill="url(#98404ce5-4260-445b-926b-64e9b30c1873)"
       transform="matrix(6.097560881055492,0,0,6.097560881055492,-4.939025726709303,-21.341463083694222)">
        <path d="M4.37 13.30C4.37 13.30 4.37 13.30 4.37 13.30C5.21 13.30 5.99 12.99 6.59 12.56C6.92 12.28 6.97 11.83 6.75 11.52C6.47 11.19 6.01 11.13 5.70 11.37C5.33 11.63 4.87 11.82 4.37 11.82C3.23 11.82 2.30 10.89 2.30 9.81C2.30 8.74 3.23 7.80 4.37 7.80C4.89 7.80 5.33 7.98 5.70 8.25C6.02 8.50 6.47 8.44 6.75 8.11C6.97 7.80 6.92 7.32 6.59 7.07C5.99 6.61 5.21 6.30 4.37 6.30C2.44 6.31 0.81 7.87 0.81 9.81C0.81 11.73 2.44 13.30 4.37 13.30ZM10.07 6.31C9.65 6.31 9.31 6.64 9.31 7.08L9.31 12.54C9.31 12.96 9.65 13.30 10.07 13.30C10.50 13.30 10.82 12.96 10.82 12.54L10.82 7.08C10.82 6.64 10.50 6.31 10.07 6.31ZM10.82 4.26C10.82 3.84 10.50 3.50 10.07 3.50C9.65 3.50 9.31 3.84 9.31 4.26L9.31 4.55C9.31 4.97 9.65 5.32 10.07 5.32C10.50 5.32 10.82 4.97 10.82 4.55L10.82 4.26ZM19.15 7.06C19.15 6.64 18.82 6.30 18.41 6.30C18.05 6.30 17.77 6.57 17.68 6.92C17.15 6.54 16.52 6.30 15.82 6.30C14.87 6.30 14.04 6.71 13.44 7.35C12.84 7.98 12.49 8.85 12.49 9.81C12.49 10.77 12.84 11.63 13.44 12.28C14.04 12.91 14.87 13.30 15.82 13.30C15.82 13.30 15.82 13.30 15.82 13.30C16.52 13.30 17.15 13.08 17.68 12.70C17.77 13.03 18.05 13.30 18.41 13.30C18.82 13.30 19.15 12.96 19.15 12.56L19.15 9.81C19.15 9.81 19.15 9.81 19.15 9.81C19.15 9.81 19.15 9.81 19.15 9.81L19.15 7.06ZM17.12 11.26C16.79 11.61 16.31 11.80 15.82 11.80C15.32 11.80 14.84 11.61 14.52 11.26C14.18 10.89 13.99 10.39 13.99 9.81C13.99 9.23 14.18 8.72 14.52 8.37C14.84 7.99 15.32 7.80 15.82 7.80C16.31 7.80 16.79 7.99 17.12 8.37C17.46 8.72 17.67 9.23 17.67 9.81C17.67 10.39 17.46 10.89 17.12 11.26ZM24.95 13.34C24.95 13.34 24.95 13.34 24.95 13.34C25.87 13.34 26.71 12.94 27.29 12.28C27.92 11.66 28.27 10.79 28.27 9.81L28.27 9.81C28.27 8.86 27.92 8.04 27.29 7.36C26.71 6.71 25.87 6.30 24.95 6.30C23.98 6.30 23.17 6.71 22.54 7.36C21.94 8.04 21.57 8.86 21.57 9.81C21.57 10.79 21.94 11.66 22.54 12.28C23.17 12.94 23.98 13.34 24.95 13.34ZM23.60 8.36C23.95 8.05 24.42 7.83 24.95 7.83C25.44 7.83 25.89 8.05 26.24 8.36C26.59 8.74 26.78 9.24 26.78 9.81L26.78 9.81C26.78 10.42 26.59 10.91 26.24 11.30C25.89 11.63 25.44 11.82 24.95 11.82C24.42 11.82 23.95 11.63 23.60 11.30C23.28 10.91 23.10 10.42 23.10 9.81C23.10 9.24 23.28 8.74 23.60 8.36Z"></path>
    </g><!----><!---->
</svg>
